/vscmnt/brussel_pixiu_data/_data_brussel/112/vsc11236/PredSimResults/SUBJ04mtu3D/weighted-expIG/worker_03.mot
version=1
nRows=4
nColumns=50
inDegrees=yes
endheader
                time	         pelvis_tilt	         pelvis_list	     pelvis_rotation	           pelvis_tx	           pelvis_ty	           pelvis_tz	       hip_flexion_r	     hip_adduction_r	      hip_rotation_r	        knee_angle_r	       ankle_angle_r	         mtp_angle_r	       hip_flexion_l	     hip_adduction_l	      hip_rotation_l	        knee_angle_l	       ankle_angle_l	         mtp_angle_l	    lumbar_extension	      lumbar_bending	     lumbar_rotation	 ercspn_r/activation	 intobl_r/activation	 extobl_r/activation	    abd_r/activation	    add_r/activation	hamstrings_r/activation	bifemsh_r/activation	glut_max_r/activation	iliopsoas_r/activation	rect_fem_r/activation	  vasti_r/activation	gastroc_r/activation	 soleus_r/activation	tib_ant_r/activation	 ercspn_l/activation	 intobl_l/activation	 extobl_l/activation	    abd_l/activation	    add_l/activation	hamstrings_l/activation	bifemsh_l/activation	glut_max_l/activation	iliopsoas_l/activation	rect_fem_l/activation	  vasti_l/activation	gastroc_l/activation	 soleus_l/activation	tib_ant_l/activation	
          1.41025131	         -5.74494884	         -4.91076148	         12.40503418	          1.19871361	          0.88404605	         -0.02254284	         24.77965073	          0.34382567	         -5.14003625	          2.23613087	          5.35999230	          0.21350724	         -7.63732938	         -4.26968303	         15.87572397	         -7.91881335	         12.94478247	         21.60897431	         -2.54121612	          1.70618122	         -1.05573511	          0.09405660	          0.15440754	          0.02270378	          0.02607732	          0.10126619	          0.02593910	          0.00999999	          0.00999999	          0.05950700	          0.01460751	          0.02495754	          0.00999999	          0.00999999	          0.26695160	          0.02891768	          0.00999999	          0.00999999	          0.09585757	          0.00999999	          0.02000148	          0.14637412	          0.07625882	          0.34052308	          0.00999999	          0.00999999	          0.31275300	          0.27665984	          0.01525327	
          1.42435382	         -5.86920835	         -4.79690411	         12.29867267	          1.21334136	          0.88210211	         -0.02142688	         24.46062017	          0.60703965	         -3.95269181	          1.62012495	          5.01954569	          0.21908595	         -7.87414740	         -4.14000068	         15.08187774	         -9.16748317	         12.83525720	         23.22937147	         -2.25743285	          1.99646259	         -1.30187945	          0.07615661	          0.15086386	          0.01838301	          0.02111452	          0.12975493	          0.02435216	          0.00999999	          0.00999999	          0.04818217	          0.01182755	          0.02020785	          0.01576615	          0.01569516	          0.26761258	          0.05345957	          0.00999999	          0.00999999	          0.07761484	          0.01882505	          0.01706789	          0.11851753	          0.06685513	          0.30925306	          0.00999999	          0.00999999	          0.29223435	          0.27529863	          0.01235041	
          1.43845634	         -5.97650708	         -4.67286070	         12.12664728	          1.22836994	          0.88030022	         -0.02021167	         24.00397051	          0.87557449	         -2.80707287	          0.98453186	          4.63484728	          0.21166670	         -8.05649558	         -3.98227538	         14.23074008	        -10.60556523	         12.60922133	         24.91082989	         -1.95588758	          2.29812726	         -1.54136819	          0.06614350	          0.16386279	          0.01488452	          0.02266398	          0.10506115	          0.02927847	          0.04837758	          0.02141625	          0.03901258	          0.00999999	          0.01636207	          0.01276568	          0.01270820	          0.30203635	          0.07261819	          0.00999999	          0.00999999	          0.06284389	          0.03638246	          0.01458166	          0.09596236	          0.05413188	          0.27174179	          0.00999999	          0.00999999	          0.26728474	          0.26693095	          0.00999999	
          1.45255885	         -6.06764753	         -4.54610492	         11.87753227	          1.24360034	          0.87885258	         -0.01888766	         23.42498245	          1.16055107	         -1.73186627	          0.56443349	          4.11137936	          0.19909043	         -8.12167135	         -3.79389969	         13.32850305	        -12.30791272	         12.20928306	         26.64560504	         -1.65643594	          2.62203842	         -1.77174337	          0.06982401	          0.14822785	          0.01205184	          0.04622410	          0.08506688	          0.03036435	          0.03917080	          0.03262540	          0.03158806	          0.00999999	          0.01324819	          0.01033623	          0.01028969	          0.32816013	          0.09631471	          0.00999999	          0.00999999	          0.05088402	          0.03712554	          0.01446877	          0.07769968	          0.04382999	          0.22881203	          0.00999999	          0.00999999	          0.23469111	          0.25023801	          0.00999999	
